<svg width="121" height="66" viewBox="0 0 121 66" fill="none" xmlns="http://www.w3.org/2000/svg">
<path d="M106.24 1.53058C107.073 0.0669363 108.918 -0.434541 110.361 0.410492L111.874 1.29705C113.317 2.14209 113.811 4.01364 112.978 5.47728L92.04 42.2709C90.9658 44.1586 88.5866 44.8053 86.726 43.7155C84.8654 42.6256 84.2279 40.2119 85.3021 38.3242L106.24 1.53058Z" fill="white"/>
<path d="M103.713 55.2223C103.617 55.4161 103.474 55.6585 103.283 55.9492C103.116 56.24 102.93 56.4883 102.727 56.6943C102.536 56.8882 102.363 56.9911 102.208 57.0033C102.077 57.0154 101.909 57.0154 101.706 57.0033C101.456 57.0154 101.247 57.0457 101.079 57.0941C100.924 57.1547 100.769 57.2153 100.614 57.2758C100.471 57.3485 100.303 57.397 100.112 57.4212C99.9451 57.4455 99.7122 57.4273 99.4137 57.3667C99.2465 57.3182 99.0912 57.294 98.9479 57.294C98.8166 57.2819 98.6852 57.2698 98.5539 57.2577C98.4225 57.2456 98.2852 57.2032 98.1419 57.1305C98.0105 57.0699 97.8672 56.9608 97.712 56.8033C97.6284 56.7185 97.5448 56.6337 97.4612 56.5489C97.4015 56.4641 97.3299 56.3793 97.2463 56.2945C97.0791 56.1249 96.9 55.9916 96.7089 55.8947C96.1596 55.6039 95.7237 55.3798 95.4013 55.2223C95.0908 55.0769 94.8221 54.8891 94.5952 54.6589C94.3564 54.4166 94.1952 54.1804 94.1116 53.9502C94.028 53.72 93.9624 53.4959 93.9146 53.2778C93.8788 53.0476 93.831 52.8174 93.7713 52.5872C93.7235 52.3449 93.6041 52.1026 93.413 51.8603C93.3653 51.7634 93.2996 51.6846 93.216 51.6241C93.1563 51.5635 93.1025 51.4969 93.0548 51.4242C92.8518 51.2182 92.6726 50.9396 92.5174 50.5882C92.3741 50.249 92.2308 49.8855 92.0875 49.4978C91.9681 49.1101 91.8367 48.7225 91.6934 48.3348C91.5621 47.9592 91.4009 47.6381 91.2098 47.3716C91.0307 47.1172 90.8396 46.887 90.6366 46.681L90.2067 46.2449C90.0754 46.1116 89.95 45.9602 89.8306 45.7906C89.7231 45.6331 89.6037 45.4877 89.4723 45.3544C89.1618 45.0394 88.8275 44.9304 88.4692 45.0273C88.1229 45.1121 87.8304 45.2757 87.5915 45.518C87.4005 45.7118 87.2452 45.9299 87.1258 46.1722C86.8631 46.2207 86.6063 46.3236 86.3556 46.4811C86.1287 46.6386 85.8898 46.7719 85.6391 46.8809C85.3883 46.99 85.1315 47.0324 84.8688 47.0081C84.618 46.996 84.3434 46.8385 84.0449 46.5357C83.7225 46.2085 83.4717 45.8572 83.2925 45.4816C83.1254 45.0939 83.0299 44.7062 83.006 44.3186C82.9821 43.9309 83.0298 43.5553 83.1492 43.1918C83.2925 42.8284 83.5075 42.5013 83.7941 42.2105C84.2121 41.7865 84.7255 41.423 85.3346 41.1201C85.9436 40.8172 86.5287 40.6597 87.09 40.6476C87.3049 40.6476 87.5079 40.6113 87.699 40.5386C87.9139 40.4659 88.1229 40.3871 88.3259 40.3023C88.5289 40.2175 88.732 40.1448 88.935 40.0843C89.1499 40.0358 89.3708 40.0297 89.5977 40.0661C90.2067 40.1509 90.8336 40.4235 91.4785 40.8839C92.1353 41.3564 92.7503 41.8713 93.3234 42.4286C93.5026 42.6103 93.6339 42.8041 93.7175 43.0101C93.8131 43.2282 93.8788 43.4523 93.9146 43.6825C93.9624 43.9006 93.9862 44.1187 93.9862 44.3367C94.0101 44.5548 94.04 44.7789 94.0758 45.0091C94.0877 45.1666 94.1594 45.4695 94.2907 45.9178C94.4221 46.366 94.5654 46.8506 94.7206 47.3716C94.8878 47.8804 95.043 48.3529 95.1863 48.7891C95.3535 49.2252 95.4789 49.51 95.5625 49.6432C95.6581 49.8128 95.7297 49.9946 95.7774 50.1884C95.8372 50.3701 95.8909 50.5579 95.9387 50.7518C95.9984 50.9335 96.064 51.1092 96.1357 51.2788C96.2193 51.4605 96.3328 51.6241 96.4761 51.7695C96.5955 51.8906 96.7208 51.9936 96.8522 52.0784C96.9836 52.1632 97.103 52.2601 97.2105 52.3692L97.4612 52.6236C97.5567 52.7205 97.6403 52.8174 97.712 52.9143C97.7956 52.9992 97.8792 53.084 97.9628 53.1688C98.3449 53.5565 98.7091 53.7321 99.0554 53.6958C99.4137 53.6715 99.6943 53.5565 99.8973 53.3505C100.029 53.2172 100.136 53.0597 100.22 52.878C100.315 52.6842 100.441 52.5085 100.596 52.351C100.799 52.145 101.032 51.9815 101.294 51.8603C101.581 51.7392 101.856 51.6665 102.118 51.6422C102.405 51.618 102.674 51.6483 102.924 51.7331C103.199 51.8179 103.426 51.9512 103.605 52.1329C103.796 52.3268 103.928 52.5569 103.999 52.8235C104.083 53.0779 104.119 53.3444 104.107 53.6231C104.119 53.9017 104.083 54.1804 103.999 54.459C103.928 54.7256 103.832 54.98 103.713 55.2223Z" fill="white"/>
<path d="M120.604 63.7907C120.508 63.9845 120.365 64.2268 120.174 64.5176C120.007 64.8084 119.822 65.0567 119.618 65.2627C119.427 65.4565 119.254 65.5595 119.099 65.5716C118.968 65.5838 118.8 65.5838 118.597 65.5716C118.347 65.5838 118.138 65.614 117.971 65.6625C117.815 65.7231 117.66 65.7837 117.505 65.8442C117.362 65.9169 117.194 65.9654 117.003 65.9896C116.836 66.0138 116.603 65.9957 116.305 65.9351C116.138 65.8866 115.982 65.8624 115.839 65.8624C115.708 65.8503 115.576 65.8382 115.445 65.8261C115.314 65.8139 115.176 65.7715 115.033 65.6988C114.902 65.6383 114.758 65.5292 114.603 65.3717C114.519 65.2869 114.436 65.2021 114.352 65.1173C114.293 65.0325 114.221 64.9477 114.137 64.8629C113.97 64.6933 113.791 64.56 113.6 64.4631C113.051 64.1723 112.615 63.9482 112.292 63.7907C111.982 63.6453 111.713 63.4575 111.486 63.2273C111.247 62.985 111.086 62.7488 111.003 62.5186C110.919 62.2884 110.853 62.0643 110.806 61.8462C110.77 61.616 110.722 61.3858 110.662 61.1556C110.615 60.9133 110.495 60.671 110.304 60.4287C110.256 60.3318 110.191 60.253 110.107 60.1925C110.047 60.1319 109.994 60.0652 109.946 59.9925C109.743 59.7866 109.564 59.5079 109.408 59.1566C109.265 58.8174 109.122 58.4539 108.979 58.0662C108.859 57.6785 108.728 57.2908 108.585 56.9032C108.453 56.5276 108.292 56.2065 108.101 55.94C107.922 55.6856 107.731 55.4554 107.528 55.2494L107.098 54.8133C106.966 54.68 106.841 54.5286 106.722 54.359C106.614 54.2015 106.495 54.0561 106.363 53.9228C106.053 53.6078 105.719 53.4988 105.36 53.5957C105.014 53.6805 104.721 53.8441 104.483 54.0864C104.292 54.2802 104.136 54.4983 104.017 54.7406C103.754 54.789 103.497 54.892 103.247 55.0495C103.02 55.207 102.781 55.3403 102.53 55.4493C102.279 55.5584 102.023 55.6008 101.76 55.5765C101.509 55.5644 101.234 55.4069 100.936 55.104C100.614 54.7769 100.363 54.4256 100.184 54.05C100.016 53.6623 99.9209 53.2746 99.897 52.8869C99.8732 52.4993 99.9209 52.1237 100.04 51.7602C100.184 51.3968 100.399 51.0697 100.685 50.7789C101.103 50.3549 101.617 49.9914 102.226 49.6885C102.835 49.3856 103.42 49.2281 103.981 49.216C104.196 49.216 104.399 49.1797 104.59 49.107C104.805 49.0343 105.014 48.9555 105.217 48.8707C105.42 48.7859 105.623 48.7132 105.826 48.6527C106.041 48.6042 106.262 48.5981 106.489 48.6345C107.098 48.7193 107.725 48.9919 108.37 49.4523C109.026 49.9248 109.641 50.4397 110.215 50.997C110.394 51.1787 110.525 51.3725 110.609 51.5785C110.704 51.7966 110.77 52.0207 110.806 52.2509C110.853 52.469 110.877 52.687 110.877 52.9051C110.901 53.1232 110.931 53.3473 110.967 53.5775C110.979 53.735 111.05 54.0379 111.182 54.4862C111.313 54.9344 111.456 55.419 111.612 55.94C111.779 56.4488 111.934 56.9213 112.077 57.3575C112.245 57.7936 112.37 58.0783 112.454 58.2116C112.549 58.3812 112.621 58.5629 112.669 58.7568C112.728 58.9385 112.782 59.1263 112.83 59.3202C112.889 59.5019 112.955 59.6776 113.027 59.8472C113.11 60.0289 113.224 60.1925 113.367 60.3378C113.487 60.459 113.612 60.562 113.743 60.6468C113.875 60.7316 113.994 60.8285 114.102 60.9375L114.352 61.192C114.448 61.2889 114.531 61.3858 114.603 61.4827C114.687 61.5675 114.77 61.6523 114.854 61.7371C115.236 62.1248 115.6 62.3005 115.946 62.2642C116.305 62.2399 116.585 62.1248 116.788 61.9189C116.92 61.7856 117.027 61.6281 117.111 61.4464C117.206 61.2525 117.332 61.0769 117.487 60.9194C117.69 60.7134 117.923 60.5499 118.186 60.4287C118.472 60.3075 118.747 60.2349 119.009 60.2106C119.296 60.1864 119.565 60.2167 119.816 60.3015C120.09 60.3863 120.317 60.5196 120.496 60.7013C120.687 60.8951 120.819 61.1253 120.89 61.3919C120.974 61.6463 121.01 61.9128 120.998 62.1915C121.01 62.4701 120.974 62.7488 120.89 63.0274C120.819 63.294 120.723 63.5484 120.604 63.7907Z" fill="white"/>
<path d="M41.4766 9.07617C41.4766 9.84961 41.3477 10.4619 41.0898 10.9131C40.8535 11.3428 40.5312 11.6973 40.123 11.9766C39.7363 12.2344 39.2852 12.4492 38.7695 12.6211C38.2539 12.7715 37.7275 12.9434 37.1904 13.1367C36.6748 13.3086 36.1592 13.5449 35.6436 13.8457C35.1279 14.125 34.666 14.5225 34.2578 15.0381C33.8926 15.5107 33.6133 16.0371 33.4199 16.6172C33.2266 17.1758 33.0547 17.7559 32.9043 18.3574C32.7539 18.959 32.582 19.5605 32.3887 20.1621C32.2168 20.7422 31.9375 21.29 31.5508 21.8057C31.4434 21.9561 31.3467 22.1064 31.2607 22.2568C31.1963 22.3857 31.1641 22.5469 31.1641 22.7402C31.1641 22.998 31.1963 23.2559 31.2607 23.5137C31.3252 23.75 31.3574 23.9863 31.3574 24.2227C31.3574 24.4375 31.3145 24.8135 31.2285 25.3506C31.1641 25.8662 31.0674 26.457 30.9385 27.123C30.8096 27.7676 30.6484 28.4443 30.4551 29.1533C30.2832 29.8623 30.0898 30.5176 29.875 31.1191C29.6816 31.7207 29.4668 32.2256 29.2305 32.6338C29.0156 33.042 28.8008 33.2783 28.5859 33.3428C28.9297 34.3096 29.1016 35.3623 29.1016 36.501C29.1016 37.1885 29.0693 37.6611 29.0049 37.9189C28.9619 38.1553 28.8867 38.3164 28.7793 38.4023C28.6934 38.4883 28.5859 38.5742 28.457 38.6602C28.3496 38.7461 28.2422 38.9609 28.1348 39.3047C27.877 40.1211 27.5762 40.9268 27.2324 41.7217C26.9102 42.5166 26.749 43.3438 26.749 44.2031C26.749 44.418 26.6953 44.7402 26.5879 45.1699C26.502 45.5781 26.373 45.9971 26.2012 46.4268C26.0293 46.8564 25.8359 47.2324 25.6211 47.5547C25.4062 47.877 25.1699 48.0381 24.9121 48.0381C24.9336 48.2529 24.9873 48.457 25.0732 48.6504C25.1807 48.8438 25.2881 49.0371 25.3955 49.2305C25.5244 49.4023 25.6318 49.5957 25.7178 49.8105C25.8252 50.0039 25.8789 50.208 25.8789 50.4229C25.8789 50.4873 25.8145 50.6807 25.6855 51.0029C25.5781 51.3252 25.4277 51.6797 25.2344 52.0664C25.041 52.4531 24.8262 52.8291 24.5898 53.1943C24.3535 53.5596 24.1064 53.8174 23.8486 53.9678C23.6768 54.0752 23.4619 54.1826 23.2041 54.29C22.9678 54.4189 22.7207 54.5264 22.4629 54.6123C22.2051 54.7197 21.9365 54.8057 21.6572 54.8701C21.3994 54.9346 21.1631 54.9668 20.9482 54.9668C20.8408 54.9668 20.6152 54.9023 20.2715 54.7734C19.9492 54.666 19.5947 54.5264 19.208 54.3545C18.8428 54.2041 18.4883 54.0537 18.1445 53.9033C17.8223 53.7314 17.6289 53.6133 17.5645 53.5488C17.3926 53.377 17.21 53.0332 17.0166 52.5176C16.8447 51.9805 16.6621 51.4004 16.4688 50.7773C16.2969 50.1328 16.1357 49.5205 15.9854 48.9404C15.835 48.3389 15.7061 47.8877 15.5986 47.5869C15.3193 46.835 15.0508 46.0938 14.793 45.3633C14.5352 44.6113 14.2988 43.8594 14.084 43.1074C13.9766 42.7637 13.8799 42.4307 13.7939 42.1084C13.708 41.7646 13.5898 41.4424 13.4395 41.1416V40.9482C13.4395 40.626 13.4932 40.3252 13.6006 40.0459C13.7295 39.7451 13.7939 39.4336 13.7939 39.1113C13.7939 38.8965 13.7402 38.6602 13.6328 38.4023C13.375 37.5859 13.1387 36.7695 12.9238 35.9531C12.709 35.1367 12.4834 34.3203 12.2471 33.5039C12.1396 33.1172 11.9893 32.7197 11.7959 32.3115C11.624 31.9033 11.4521 31.4951 11.2803 31.0869C11.1084 30.6572 10.958 30.2383 10.8291 29.8301C10.7217 29.4004 10.668 28.9922 10.668 28.6055C10.668 27.9824 10.8291 27.4131 11.1514 26.8975C10.958 26.3818 10.7539 25.877 10.5391 25.3828C10.3457 24.8672 10.1738 24.3408 10.0234 23.8037C9.80859 23.0088 9.66895 22.2354 9.60449 21.4834C9.54004 20.7314 9.4541 19.9902 9.34668 19.2598C9.26074 18.5293 9.11035 17.8096 8.89551 17.1006C8.70215 16.3701 8.3584 15.6396 7.86426 14.9092C7.52051 14.415 7.20898 14.0605 6.92969 13.8457C6.65039 13.6094 6.36035 13.4482 6.05957 13.3623C5.75879 13.2549 5.42578 13.1904 5.06055 13.1689C4.69531 13.1475 4.25488 13.0938 3.73926 13.0078C3.03027 12.8789 2.38574 12.5889 1.80566 12.1377C1.22559 11.6865 0.935547 11.0635 0.935547 10.2686C0.935547 9.86035 1.06445 9.52734 1.32227 9.26953C1.60156 9.01172 1.95605 8.80762 2.38574 8.65723C2.81543 8.50684 3.29883 8.39941 3.83594 8.33496C4.37305 8.24902 4.89941 8.18457 5.41504 8.1416C5.93066 8.07715 6.41406 8.02344 6.86523 7.98047C7.31641 7.9375 7.6709 7.8623 7.92871 7.75488C8.25098 7.64746 8.5625 7.55078 8.86328 7.46484C9.18555 7.37891 9.5293 7.33594 9.89453 7.33594C10.3457 7.33594 10.7861 7.36816 11.2158 7.43262C11.6455 7.49707 12.0859 7.55078 12.5371 7.59375C13.0527 7.63672 13.5469 7.67969 14.0195 7.72266C14.5137 7.76562 14.9648 7.8623 15.373 8.0127C15.8027 8.16309 16.1787 8.39941 16.501 8.72168C16.8232 9.02246 17.0703 9.46289 17.2422 10.043C17.3496 10.3652 17.4033 10.666 17.4033 10.9453C17.4033 11.3965 17.2744 11.7832 17.0166 12.1055C16.7803 12.4062 16.4795 12.6748 16.1143 12.9111C15.7705 13.126 15.3945 13.3301 14.9863 13.5234C14.5781 13.6953 14.2129 13.8672 13.8906 14.0391L13.9229 14.3291C13.9229 14.7158 13.8584 15.0918 13.7295 15.457C13.6006 15.8223 13.3535 16.1123 12.9883 16.3271C13.3535 16.5635 13.5791 16.875 13.665 17.2617C13.751 17.627 13.7939 18.0244 13.7939 18.4541C13.8154 18.8838 13.8477 19.3242 13.8906 19.7754C13.9336 20.2051 14.0947 20.5918 14.374 20.9355C14.7393 21.3867 14.9648 21.8594 15.0508 22.3535C15.1582 22.8477 15.2119 23.3633 15.2119 23.9004V25.0928C15.2119 25.458 15.2227 25.8232 15.2441 26.1885C15.2871 26.5322 15.373 26.876 15.502 27.2197C15.5664 27.4131 15.6416 27.6064 15.7275 27.7998C15.8135 27.9717 15.8564 28.165 15.8564 28.3799C15.8564 28.5732 15.8027 28.7344 15.6953 28.8633C15.5879 28.9922 15.4482 29.0996 15.2764 29.1855C15.5127 29.7441 15.749 30.335 15.9854 30.958C16.2217 31.5596 16.5977 32.043 17.1133 32.4082C17.0918 32.5156 17.0811 32.6338 17.0811 32.7627C17.0811 32.8916 17.0811 33.0098 17.0811 33.1172C17.0811 33.418 17.1025 33.7402 17.1455 34.084C17.1885 34.4277 17.2422 34.7715 17.3066 35.1152C17.3926 35.459 17.4893 35.792 17.5967 36.1143C17.7041 36.4365 17.833 36.7266 17.9834 36.9844L18.0479 37.0166V37.1777C18.0479 37.457 17.9619 37.7148 17.79 37.9512C17.6396 38.166 17.5645 38.4131 17.5645 38.6924C17.5645 38.9072 17.6289 39.1543 17.7578 39.4336C17.9082 39.6914 18.0801 39.96 18.2734 40.2393C18.4668 40.4971 18.6709 40.7549 18.8857 41.0127C19.1006 41.249 19.2725 41.4424 19.4014 41.5928H19.5947C20.0674 41.5928 20.4648 41.4961 20.7871 41.3027C21.1094 41.0879 21.3672 40.8193 21.5605 40.4971C21.7754 40.1748 21.9365 39.8096 22.0439 39.4014C22.1729 38.9932 22.291 38.585 22.3984 38.1768C22.4629 37.9619 22.5488 37.543 22.6562 36.9199C22.7637 36.2969 22.9033 35.6523 23.0752 34.9863C23.2471 34.3203 23.4404 33.7295 23.6553 33.2139C23.8916 32.6768 24.1387 32.4082 24.3965 32.4082H24.4609C24.418 32.2148 24.3428 32.0322 24.2354 31.8604C24.1279 31.6885 24.0098 31.5166 23.8809 31.3447C23.7734 31.1514 23.6768 30.9688 23.5908 30.7969C23.5049 30.625 23.4619 30.4424 23.4619 30.249C23.4619 30.0771 23.4834 29.916 23.5264 29.7656C23.5908 29.5938 23.666 29.4326 23.752 29.2822C24.0098 28.7236 24.2139 28.251 24.3643 27.8643C24.5361 27.4561 24.665 27.0693 24.751 26.7041C24.8584 26.3174 24.9443 25.9199 25.0088 25.5117C25.0732 25.082 25.1377 24.5664 25.2021 23.9648C25.2236 23.793 25.3203 23.4707 25.4922 22.998C25.6641 22.5039 25.8574 21.999 26.0723 21.4834C26.3086 20.9463 26.5342 20.4521 26.749 20.001C26.9639 19.5283 27.125 19.2168 27.2324 19.0664V19.0986C27.2539 18.9912 27.2646 18.9053 27.2646 18.8408C27.2861 18.7549 27.2969 18.6582 27.2969 18.5508C27.2969 18.4219 27.2646 18.293 27.2002 18.1641C27.1572 18.0352 27.1357 17.9062 27.1357 17.7773C27.1357 17.4766 27.2324 17.2188 27.4258 17.0039C27.6191 16.7676 27.7158 16.499 27.7158 16.1982C27.7158 15.8975 27.6299 15.6074 27.458 15.3281C27.2861 15.0273 27.082 14.748 26.8457 14.4902C26.6094 14.2324 26.3516 13.9854 26.0723 13.749C25.8145 13.5127 25.5889 13.2979 25.3955 13.1045H24.4609C24.2246 12.8252 24.042 12.5244 23.9131 12.2021C23.8057 11.8584 23.6338 11.5469 23.3975 11.2676C23.2686 11.1387 23.1396 10.999 23.0107 10.8486C22.8818 10.6982 22.8174 10.5264 22.8174 10.333C22.8174 10.0967 22.8711 9.82812 22.9785 9.52734C23.1074 9.22656 23.2041 8.95801 23.2686 8.72168C23.3545 8.35645 23.4297 8.09863 23.4941 7.94824C23.5801 7.77637 23.6768 7.6582 23.7842 7.59375C23.9131 7.50781 24.0635 7.4541 24.2354 7.43262C24.4287 7.38965 24.6865 7.31445 25.0088 7.20703C25.3525 7.07812 25.6963 7.01367 26.04 7.01367C26.2334 7.01367 26.416 7.02441 26.5879 7.0459C26.7812 7.06738 26.9639 7.07812 27.1357 7.07812C27.3721 7.07812 27.6621 7.03516 28.0059 6.94922C28.3496 6.8418 28.7148 6.73438 29.1016 6.62695C29.5098 6.49805 29.9395 6.39062 30.3906 6.30469C30.8418 6.19727 31.293 6.14355 31.7441 6.14355C32.2598 6.14355 32.7539 6.22949 33.2266 6.40137C33.6992 6.57324 34.1934 6.65918 34.709 6.65918C34.8809 6.65918 35.0527 6.64844 35.2246 6.62695C35.418 6.60547 35.6006 6.59473 35.7725 6.59473C36.0732 6.59473 36.3525 6.6377 36.6104 6.72363C36.8896 6.80957 37.1582 6.91699 37.416 7.0459C37.7383 7.19629 38.0713 7.3252 38.415 7.43262C38.7588 7.51855 39.1025 7.61523 39.4463 7.72266C39.8115 7.80859 40.166 7.91602 40.5098 8.04492C40.8535 8.17383 41.1758 8.33496 41.4766 8.52832V9.07617Z" fill="white"/>
<path d="M74.4766 51.7119C74.4766 51.9482 74.4121 52.1846 74.2832 52.4209C74.1543 52.6357 73.9932 52.8398 73.7998 53.0332C73.6064 53.2051 73.3916 53.3555 73.1553 53.4844C72.9189 53.5918 72.6934 53.6455 72.4785 53.6455C72.3281 53.6455 72.1777 53.6348 72.0273 53.6133C71.877 53.5918 71.7266 53.5811 71.5762 53.5811C71.3828 53.5811 71.2539 53.6455 71.1895 53.7744C71.125 53.8818 71.0605 54 70.9961 54.1289C70.9531 54.2578 70.8779 54.376 70.7705 54.4834C70.6631 54.6123 70.4697 54.6768 70.1904 54.6768C70.0186 54.6768 69.8359 54.6553 69.6426 54.6123C69.4492 54.5693 69.2559 54.5479 69.0625 54.5479C68.6543 54.5479 68.2568 54.623 67.8701 54.7734C67.5049 54.9453 67.1074 55.0312 66.6777 55.0312C66.3125 55.0312 65.7646 54.9668 65.0342 54.8379C64.3037 54.7305 63.5625 54.5479 62.8105 54.29C62.0801 54.0537 61.4355 53.7637 60.877 53.4199C60.3184 53.0547 60.0391 52.6357 60.0391 52.1631C60.0391 51.7979 60.2432 51.4326 60.6514 51.0674C61.0811 50.6807 61.5537 50.2617 62.0693 49.8105C62.585 49.3379 63.0469 48.8115 63.4551 48.2314C63.8848 47.6514 64.0996 46.9746 64.0996 46.2012C64.0996 45.75 64.0029 45.3096 63.8096 44.8799C63.6377 44.4502 63.4121 44.0527 63.1328 43.6875C62.8535 43.3008 62.5312 42.9463 62.166 42.624C61.8223 42.3018 61.4893 42.001 61.167 41.7217C61.0596 41.6787 60.8984 41.6572 60.6836 41.6572C60.1035 41.6572 59.5234 41.7217 58.9434 41.8506C58.3633 41.958 57.7832 42.0117 57.2031 42.0117C56.9023 42.0117 56.5908 41.9688 56.2686 41.8828C55.9678 41.7969 55.7637 41.582 55.6562 41.2383C55.0977 41.5176 54.5391 41.7861 53.9805 42.0439C53.4219 42.2803 52.8525 42.4951 52.2725 42.6885C51.9072 42.8174 51.6387 42.9141 51.4668 42.9785C51.3164 43.043 51.1982 43.1182 51.1123 43.2041C51.0479 43.29 50.9941 43.4189 50.9512 43.5908C50.9297 43.7627 50.8545 44.0098 50.7256 44.332C50.6396 44.5469 50.5967 44.7402 50.5967 44.9121C50.5967 45.084 50.5967 45.2773 50.5967 45.4922C50.5967 45.7715 50.543 45.9971 50.4355 46.1689C50.3281 46.3193 50.21 46.4697 50.0811 46.6201C49.9736 46.749 49.8662 46.8887 49.7588 47.0391C49.6514 47.1895 49.5977 47.3828 49.5977 47.6191C49.5977 47.8125 49.6299 47.9844 49.6943 48.1348L49.6621 48.2959C49.6621 48.6182 49.748 48.876 49.9199 49.0693C50.0918 49.2412 50.2959 49.3809 50.5322 49.4883C50.79 49.5742 51.0586 49.6602 51.3379 49.7461C51.6172 49.832 51.8643 49.9395 52.0791 50.0684C52.2939 50.1973 52.498 50.4121 52.6914 50.7129C52.9062 50.9922 53.0889 51.3037 53.2393 51.6475C53.4111 51.9697 53.5508 52.3027 53.6582 52.6465C53.7656 52.9688 53.8193 53.248 53.8193 53.4844V53.6455H53.4004C52.541 53.6455 51.6816 53.6885 50.8223 53.7744C49.9844 53.8389 49.1465 53.9141 48.3086 54C47.4707 54.1074 46.6221 54.1934 45.7627 54.2578C44.9248 54.3438 44.0762 54.3867 43.2168 54.3867C42.916 54.3867 42.4756 54.376 41.8955 54.3545C41.3369 54.333 40.7783 54.2686 40.2197 54.1611C39.6611 54.0752 39.167 53.9248 38.7373 53.71C38.3291 53.4736 38.125 53.1406 38.125 52.7109C38.125 52.2598 38.2217 51.8838 38.415 51.583C38.6299 51.2822 38.8984 51.0352 39.2207 50.8418C39.5645 50.627 39.9404 50.4551 40.3486 50.3262C40.7783 50.1758 41.1973 50.0361 41.6055 49.9072C42.0352 49.7783 42.4326 49.6494 42.7979 49.5205C43.1846 49.3916 43.5068 49.2197 43.7646 49.0049C44.0225 48.79 44.2373 48.4463 44.4092 47.9736C44.5811 47.4795 44.7207 46.9531 44.8281 46.3945C44.9355 45.8359 45.0322 45.2881 45.1182 44.751C45.2041 44.1924 45.2793 43.752 45.3438 43.4297C45.3652 43.3223 45.376 43.1934 45.376 43.043C45.3975 42.8711 45.4082 42.6992 45.4082 42.5273C45.4297 42.3555 45.4404 42.1943 45.4404 42.0439C45.4619 41.8936 45.4941 41.7861 45.5371 41.7217C45.752 41.3564 45.9131 41.1416 46.0205 41.0771C46.1494 41.0127 46.2354 40.959 46.2783 40.916C46.3428 40.873 46.375 40.7656 46.375 40.5938C46.3965 40.4004 46.4072 40.0137 46.4072 39.4336C46.4072 39.1758 46.4609 38.9824 46.5684 38.8535C46.6758 38.7031 46.7832 38.5742 46.8906 38.4668C47.0195 38.3594 47.1377 38.2627 47.2451 38.1768C47.3525 38.0693 47.4062 37.9297 47.4062 37.7578C47.4062 37.457 47.3203 37.1885 47.1484 36.9521C46.9766 36.6943 46.8906 36.415 46.8906 36.1143C46.8906 35.9424 46.9336 35.792 47.0195 35.6631C47.1055 35.5342 47.2021 35.416 47.3096 35.3086C47.4385 35.2012 47.5459 35.0938 47.6318 34.9863C47.7178 34.8574 47.7607 34.707 47.7607 34.5352C47.7607 34.2988 47.707 34.0625 47.5996 33.8262C47.5137 33.5898 47.4707 33.3535 47.4707 33.1172C47.4707 32.9453 47.5244 32.8271 47.6318 32.7627C47.7607 32.6768 47.8896 32.6123 48.0186 32.5693C48.1689 32.5264 48.2979 32.4941 48.4053 32.4727C48.5342 32.4297 48.5986 32.376 48.5986 32.3115C48.5342 32.1826 48.416 32.1182 48.2441 32.1182C47.9863 32.1182 47.8574 32.2578 47.8574 32.5371C47.707 32.4297 47.5781 32.3115 47.4707 32.1826C47.3633 32.0322 47.3096 31.8711 47.3096 31.6992C47.3096 31.4844 47.3633 31.291 47.4707 31.1191C47.5781 30.9258 47.6963 30.7109 47.8252 30.4746C47.9756 30.2383 48.1045 29.9697 48.2119 29.6689C48.3193 29.3682 48.373 29.0029 48.373 28.5732C48.373 28.1221 48.3086 27.6924 48.1797 27.2842C48.0508 26.8545 47.9863 26.4248 47.9863 25.9951C47.9863 25.7803 48.0293 25.5654 48.1152 25.3506C48.2227 25.1357 48.3408 24.9316 48.4697 24.7383C48.6201 24.5234 48.7598 24.3193 48.8887 24.126C49.0391 23.9111 49.1465 23.6855 49.2109 23.4492C49.3398 23.041 49.4043 22.6113 49.4043 22.1602C49.4258 21.709 49.4365 21.2578 49.4365 20.8066C49.458 20.3555 49.4902 19.915 49.5332 19.4854C49.5977 19.0342 49.7373 18.6152 49.9521 18.2285C50.1455 17.8848 50.2959 17.6055 50.4033 17.3906C50.5107 17.1758 50.6074 16.9717 50.6934 16.7783C50.7793 16.5635 50.8545 16.3379 50.9189 16.1016C50.9834 15.8438 51.0479 15.5107 51.1123 15.1025C51.2197 14.4795 51.3809 13.8779 51.5957 13.2979C51.832 12.7178 51.9932 12.1162 52.0791 11.4932C52.1221 11.0205 52.1436 10.623 52.1436 10.3008C52.165 9.95703 52.2188 9.65625 52.3047 9.39844C52.4121 9.14062 52.584 8.91504 52.8203 8.72168C53.0781 8.52832 53.4648 8.33496 53.9805 8.1416C54.5391 7.94824 55.0977 7.81934 55.6562 7.75488C56.2148 7.66895 56.7734 7.62598 57.332 7.62598C57.9766 7.62598 58.6426 7.6582 59.3301 7.72266C59.3945 8.08789 59.5342 8.4209 59.749 8.72168C59.9639 9.00098 60.1895 9.28027 60.4258 9.55957C60.6836 9.83887 60.9199 10.1289 61.1348 10.4297C61.3711 10.709 61.5322 11.0312 61.6182 11.3965C61.7256 11.8906 61.79 12.3633 61.8115 12.8145C61.8545 13.2441 62.0371 13.6738 62.3594 14.1035C62.5098 14.3398 62.585 14.6191 62.585 14.9414C62.585 15.4355 62.5205 15.9082 62.3916 16.3594C62.2627 16.8105 62.1982 17.2725 62.1982 17.7451C62.1982 18.0244 62.2842 18.4863 62.4561 19.1309C62.6279 19.7754 62.832 20.4736 63.0684 21.2256C63.3047 21.9561 63.5303 22.6758 63.7451 23.3848C63.96 24.0723 64.1211 24.6094 64.2285 24.9961C64.4219 25.8125 64.5186 26.6504 64.5186 27.5098C64.54 28.3691 64.6797 29.207 64.9375 30.0234C65.1953 30.8828 65.4209 31.7422 65.6143 32.6016C65.8076 33.4395 65.9365 34.3096 66.001 35.2119C66.0439 36.0498 66.1514 36.8662 66.3232 37.6611C66.4951 38.4346 66.6777 39.2188 66.8711 40.0137C67.0645 40.7871 67.2363 41.5713 67.3867 42.3662C67.5586 43.1611 67.6445 43.9883 67.6445 44.8477C67.6445 45.1699 67.6123 45.5029 67.5479 45.8467C67.5049 46.1904 67.3652 46.4912 67.1289 46.749C67.5801 47.2861 68.085 47.8662 68.6436 48.4893C69.2236 49.1123 69.793 49.6064 70.3516 49.9717C70.5664 50.1006 70.8994 50.1973 71.3506 50.2617C71.8018 50.3262 72.2529 50.4121 72.7041 50.5195C73.1768 50.6055 73.585 50.7451 73.9287 50.9385C74.2939 51.1104 74.4766 51.3682 74.4766 51.7119ZM60.9736 34.3418C60.9736 34.1484 60.8984 33.9014 60.748 33.6006C60.5977 33.2783 60.4258 32.9238 60.2324 32.5371C60.0605 32.1504 59.8994 31.7314 59.749 31.2803C59.5986 30.8291 59.5234 30.3564 59.5234 29.8623C59.5234 29.2822 59.4375 28.7129 59.2656 28.1543C59.0938 27.5742 58.9756 26.9941 58.9111 26.4141C58.8682 25.9414 58.8145 25.4258 58.75 24.8672C58.707 24.2871 58.5996 23.75 58.4277 23.2559C58.2559 22.7402 57.9873 22.3213 57.6221 21.999C57.2783 21.6553 56.7734 21.4834 56.1074 21.4834C56.0645 21.6553 55.9893 21.7842 55.8818 21.8701C55.7744 21.9346 55.6455 21.999 55.4951 22.0635C55.3662 22.1064 55.2266 22.1494 55.0762 22.1924C54.9258 22.2354 54.8076 22.3105 54.7217 22.418C54.7432 22.4824 54.7539 22.5791 54.7539 22.708C54.7539 23.0947 54.668 23.46 54.4961 23.8037C54.3457 24.126 54.2061 24.459 54.0771 24.8027C53.9268 25.168 53.8193 25.5547 53.7549 25.9629C53.7119 26.3496 53.6904 26.7363 53.6904 27.123C53.6904 27.4668 53.7012 27.7998 53.7227 28.1221C53.7441 28.4443 53.7549 28.7666 53.7549 29.0889C53.7549 29.583 53.7119 30.0127 53.626 30.3779C53.54 30.7217 53.4434 31.0439 53.3359 31.3447C53.2285 31.6455 53.1318 31.9355 53.0459 32.2148C52.96 32.4727 52.917 32.752 52.917 33.0527C52.917 33.6973 52.9385 34.2559 52.9814 34.7285C53.0244 35.2012 53.1211 35.5986 53.2715 35.9209C53.4219 36.2217 53.6367 36.458 53.916 36.6299C54.1953 36.7803 54.582 36.8555 55.0762 36.8555C55.4199 36.8555 55.9141 36.8125 56.5586 36.7266C57.2246 36.6406 57.8799 36.501 58.5244 36.3076C59.1904 36.0928 59.7598 35.8242 60.2324 35.502C60.7266 35.1797 60.9736 34.793 60.9736 34.3418Z" fill="white"/>
</svg>
